<svg id="Layer_1" data-name="Layer 1" xmlns="http://www.w3.org/2000/svg" viewBox="0 0 366.45 46.27"><defs><style>.cls-1{fill:#1e3562;stroke:#1e3562;stroke-miterlimit:10;}</style></defs><title>logo-bold</title><path class="cls-1" d="M29.51,8c1.82-.06,2.36-1.39,3-3.32h.79a65.66,65.66,0,0,0-1.15,8.45v3.56H31.2V14.84C31.2,9,26.5,5.18,20,5.18c-10.2,0-12.25,9.9-12.25,19.55,0,10.08,2.29,19.38,11.77,19.38a13.34,13.34,0,0,0,7.24-1.93,11.44,11.44,0,0,0,5-9.48h1c0,4.46-3,12.31-13.21,12.31C8.64,45,1.33,36.26,1.33,24.43S9,4.28,20,4.28C24.57,4.28,27.64,6,29.51,8Z"/><path class="cls-1" d="M53.19,29.62h.61V23.29c0-3.56-1-5.5-4.95-5.5-3.68,0-5.68,1.4-5.68,4.59,0,2,.85,3.68,2.84,3.26v.48a8.19,8.19,0,0,1-2.35.37c-2.72,0-4.59-1.51-4.59-3.93,0-3.32,3.44-5.55,9.78-5.55,7.3,0,10.26,3,10.26,8.27V41c0,1.75.36,2.71,1.63,2.71,2,0,2.83-2,2.83-4.16h.91c0,3.62-2,5.43-4.83,5.43-3.26,0-5.13-1.87-5.31-4.95h-.12A9.25,9.25,0,0,1,45.77,45c-3.86,0-8.15-1.75-8.15-6.76C37.62,31.74,45.89,29.62,53.19,29.62ZM46.86,44a7.11,7.11,0,0,0,3.92-1.39c1.69-1.21,3-3,3-4.35V30.53H52.71a12.57,12.57,0,0,0-6.28,1.33c-2,1.14-3.07,3.2-3.07,6.51C43.36,42.36,44.62,44,46.86,44Z"/><path class="cls-1" d="M65.76,17.43h9.41v6.4h.12c1.09-3.14,3.5-6.82,7.79-6.82a5.38,5.38,0,0,1,5.73,5.49c0,3-1.87,4.77-4.28,4.77a4.35,4.35,0,0,1-2-.36v-.49c1.74.31,2-1.86,2-3.55,0-3-1-4.59-2.78-4.59s-3.26,1.45-4.4,3.32a14,14,0,0,0-2.06,6.7V43.69h4.83v.9H65.76v-.9H70V18.34H65.76Z"/><path class="cls-1" d="M90.46,43.69h4.22V2.16H90.46v-.9H100V43.69h4.22v.9H90.46Z"/><path class="cls-1" d="M120.76,17c9,0,12.85,5.25,12.85,13.82,0,9.05-4.89,14.18-12.85,14.18-8.69,0-12.91-5.43-12.91-13.82C107.85,22.5,111.83,17,120.76,17Zm7.18,13.82c0-9.17-1.69-13-7.18-13s-7.24,4-7.24,13.4c0,9,1.75,13,7.24,13S127.94,40.06,127.94,30.83Z"/><path class="cls-1" d="M139.66,39.4V34.93h1v2.18c0,3.14,3.44,7,9.05,7,3.8,0,7-1.75,7-5.13,0-3.56-4.28-4.23-8.51-5.31-4.52-1.15-8.87-2.78-8.87-8.57,0-6.22,5.37-8.09,9.48-8.09a9.32,9.32,0,0,1,6.81,2.6c1.39-.31,1.75-1.69,2.18-2.6h.9a13,13,0,0,0-1,5.62V25.7h-1v-1c0-3.07-2.35-6.81-8-6.81-3.87,0-7.07,1.57-7.07,5,0,3.14,3.44,4,7.31,4.95,4.82,1.15,10.19,2.6,10.19,8.63,0,4.83-3.61,8.51-9.53,8.51A10.75,10.75,0,0,1,142,42c-1,.29-1.69,1.87-2.05,3H139A18.24,18.24,0,0,0,139.66,39.4Z"/><path class="cls-1" d="M184.34,6.21V40.06c0,2.3.91,3.63,3.56,3.63h1.87v.9H178v-.9h1.81c2.65,0,3.61-1.33,3.61-3.63V5.6H178V4.7h12.13l12.26,31,10.74-31h11.76v.9h-5.37V43.69h5.37v.9H208.24v-.9h5.37V6.33L200.39,44.59h-.9Z"/><path class="cls-1" d="M244.17,29.62h.61V23.29c0-3.56-1-5.5-4.95-5.5-3.68,0-5.67,1.4-5.67,4.59,0,2,.84,3.68,2.83,3.26v.48a8.11,8.11,0,0,1-2.35.37c-2.72,0-4.59-1.51-4.59-3.93,0-3.32,3.44-5.55,9.78-5.55,7.3,0,10.26,3,10.26,8.27V41c0,1.75.36,2.71,1.63,2.71,2.05,0,2.83-2,2.83-4.16h.91c0,3.62-2,5.43-4.83,5.43-3.26,0-5.13-1.87-5.31-4.95h-.12A9.25,9.25,0,0,1,236.75,45c-3.86,0-8.15-1.75-8.15-6.76C228.6,31.74,236.87,29.62,244.17,29.62ZM237.84,44a7.08,7.08,0,0,0,3.92-1.39c1.69-1.21,3-3,3-4.35V30.53h-1.09a12.57,12.57,0,0,0-6.28,1.33c-2,1.14-3.07,3.2-3.07,6.51C234.34,42.36,235.6,44,237.84,44Z"/><path class="cls-1" d="M256.74,17.43h9.41v6.4h.13c1.08-3.14,3.5-6.82,7.78-6.82a5.38,5.38,0,0,1,5.73,5.49c0,3-1.87,4.77-4.28,4.77a4.35,4.35,0,0,1-2.05-.36v-.49c1.75.31,2.05-1.86,2.05-3.55,0-3-1-4.59-2.78-4.59s-3.26,1.45-4.4,3.32a13.94,13.94,0,0,0-2.05,6.7V43.69h4.82v.9H256.74v-.9H261V18.34h-4.23Z"/><path class="cls-1" d="M285.48,18.34h-4v-.91h1.93c4.1,0,6.52-6,6.52-9.59h.9v9.59h7.06v.91h-7.06V38.67c0,3.33.6,5,3,5,1.45,0,3.8-.61,3.8-4.41h.9c0,2.66-1.2,5.73-6,5.73-5.07,0-7-3.2-7-7.85Z"/><path class="cls-1" d="M300.76,43.69H305V18.34h-4.77v-.91h10.08V43.69h4.23v.9H300.76ZM307.21,4.1a3.31,3.31,0,0,1,3.26,3.25,3.26,3.26,0,1,1-6.51,0A3.32,3.32,0,0,1,307.21,4.1Z"/><path class="cls-1" d="M316.94,43.69h4.22V18.34h-4.22v-.91h9.41v6.46h.12A9.79,9.79,0,0,1,336.19,17c6,0,8.69,2.53,8.69,8.27V43.69h4.22v.9H335.77v-.9h3.8V24.19c0-4.52-1-6.09-4.29-6.09a8,8,0,0,0-6.63,3.5,12.74,12.74,0,0,0-2.18,6.75V43.69h3.81v.9H316.94Z"/><path class="cls-1" d="M351.35,43.69h4.23V18.34h-4.77v-.91h10.08V43.69h4.22v.9H351.35ZM357.81,4.1a3.32,3.32,0,0,1,3.26,3.25,3.26,3.26,0,1,1-6.52,0A3.32,3.32,0,0,1,357.81,4.1Z"/></svg>